<svg version="1" xmlns="http://www.w3.org/2000/svg" viewBox="0 0 305 305"><path d="M275 245c-9-4-13-9-13-16 1-8-4-15-6-17 1-5 5-23 0-39-6-17-24-43-42-69-8-10-8-21-8-34-1-13-1-27-8-43-8-17-23-27-42-27-11 0-23 4-32 10-18 12-16 40-14 58v7c1 18 0 27-1 30l-9 13-13 18c-5 8-9 19-13 30l-8 20c-5 9-4 17-3 20l-7 9c-2 6-8 9-19 11-6 1-9 3-11 7-3 4-1 10 0 15 2 6 1 9-1 16l-2 6c-1 3-1 6 1 8 4 7 17 9 30 11 8 1 16 4 24 7l24 7h4c11 0 16-8 18-11l33-4c14 0 28 3 32 4 2 2 5 8 10 11l11 2c5 0 13-1 20-8a174 174 0 0 1 43-27c6-3 10-9 10-14-1-5-4-9-8-11zm-151-1c-1-6-8-12-17-19-7-6-16-12-18-17-5-12-1-31 5-41 4-5 6-13 9-20 2-8 5-16 8-20 5-6 10-16 11-25 4 4 12 10 18 10h3l18-9 15-8c5 6 31 64 33 82 2 15 0 27-1 31h-3c-7 0-9 4-10 6l-1 30c-3 4-16 19-35 22a150 150 0 0 1-32 1l-9-11c3-2 7-5 6-12zm12-180l-1 1v-2c-1-6-5-11-9-11h-1c-3 1-5 3-6 6 1-7 4-11 9-11 4 0 8 6 8 14v3zm38 5l1-5c0-7-5-12-11-12-5 0-10 5-10 12v1l-1-6c0-8 5-15 12-15 6 0 12 7 12 15 0 4-1 7-3 10zm-5 16l-2 2-5 2-1 1c-5 3-16 10-19 10l-6-3-2-1c-5-3-8-7-9-8l8-7c5-4 9-6 11-6l14 4 5 2 6 4zm36 186a148 148 0 0 0 4-48c0 4 1 14 9 17l7 1c8 0 16-3 19-7l5-6v3c0 7 3 16 10 19l1 1c2 1 8 4 8 6l-12 7c-9 4-20 10-24 15-7 7-14 11-19 11h-1c-5-2-9-9-7-19zM40 245l-1-5c1-2 7-3 10-4 4-1 8-1 11-3s5-6 7-10c1-2 2-5 4-6 3 0 9 6 12 11l5 8c5 9 13 22 17 26 3 4 9 11 8 17-1 5-7 9-8 10h-2c-8 0-23-6-31-9l-1-1c-4-2-12-3-19-4l-15-3c-1-2 1-5 2-9l2-7-1-11z"/></svg>