<svg xmlns="http://www.w3.org/2000/svg" viewBox="0 0 22.77 22.77"><path d="M15.77 0h.16c.13 1.6-.48 2.8-1.23 3.67-.73.87-1.73 1.7-3.35 1.58-.1-1.59.5-2.7 1.25-3.56A5.4 5.4 0 0 1 15.77 0zM20.67 16.72v.04a13.25 13.25 0 0 1-1.9 3.66c-.72 1-1.6 2.33-3.19 2.33-1.36 0-2.27-.88-3.67-.9-1.48-.03-2.3.73-3.65.92h-.47c-1-.14-1.8-.93-2.38-1.64a14.39 14.39 0 0 1-3.3-8.27v-1.02c.1-2.49 1.3-4.5 2.9-5.48.85-.52 2.02-.96 3.31-.77.56.09 1.12.28 1.62.47.47.18 1.06.5 1.62.48.38 0 .75-.2 1.13-.34 1.12-.4 2.21-.87 3.66-.65a5.07 5.07 0 0 1 3.72 2.22 4.78 4.78 0 0 0-2.43 4.74 4.9 4.9 0 0 0 3.03 4.2z"/></svg>