<svg xmlns="http://www.w3.org/2000/svg" viewBox="0 0 49.94 49.94"><path d="M48.86 22.73a3.56 3.56 0 0 0 .9-3.67 3.56 3.56 0 0 0-2.89-2.44l-12.1-1.76c-.5-.07-.95-.4-1.18-.86l-5.4-10.96c-.62-1.23-1.85-2-3.22-2s-2.6.77-3.21 2L16.36 14c-.24.47-.68.79-1.2.86l-12.1 1.76a3.56 3.56 0 0 0-2.88 2.44 3.56 3.56 0 0 0 .9 3.67l8.75 8.53c.38.36.55.89.46 1.4L8.22 44.7A3.5 3.5 0 0 0 9 47.6a3.62 3.62 0 0 0 4.42.88l10.81-5.69a1.62 1.62 0 0 1 1.48 0l10.81 5.69a3.54 3.54 0 0 0 4.41-.87 3.5 3.5 0 0 0 .79-2.9l-2.07-12.05c-.09-.51.08-1.04.46-1.4l8.75-8.53z"/></svg>