<svg viewBox="-76 0 512 512" xmlns="http://www.w3.org/2000/svg"><path d="M318 19v76h-38V19c0-7 5-12 11-12h16c6 0 11 5 11 12zm0 0" fill="#c97f4c"/><path d="M280 71h38v24h-38zm0 0" fill="#aa6344"/><path d="M258 63v26H102V63c0-6 5-11 11-11h134c6 0 11 5 11 11zm0 0" fill="#bddff4"/><path d="M102 71h156v18H102zm0 0" fill="#9cc6db"/><path d="M338 130l-2 21-39 344c-1 5-6 9-12 9H75c-5 0-10-4-11-9L25 151l-2-21c-1-7 4-12 11-12h293c6 0 12 5 11 12zm0 0" fill="#ffeee1"/><path d="M338 130l-2 21H25l-2-21c-1-7 4-12 11-12h293c6 0 12 5 11 12zm0 0" fill="#fedfc5"/><path d="M338 130l-41 365c-1 5-6 9-12 9h-22c5 0 10-4 11-9l41-365c1-7-4-12-11-12h23c6 0 12 5 11 12zm0 0" fill="#fedfc5"/><path d="M56 424c-6 0-10-4-11-9L23 211c-1-6 4-12 11-12h293c6 0 12 6 11 12l-22 204c-1 5-6 9-11 9" fill="#1cc939"/><path d="M338 211l-22 204c-1 5-6 9-11 9h-27c6 0 10-4 11-9l22-204c1-6-4-12-11-12h27c6 0 12 6 11 12zm0 0" fill="#00ad00"/><path d="M342 139H19c-7 0-11-5-11-11V94c0-6 4-11 11-11h323c6 0 11 5 11 11v34c0 6-5 11-11 11zm0 0" fill="#e3f4ff"/><path d="M248 311a67 67 0 1 1-135 0 67 67 0 0 1 135 0zm0 0" fill="#ffeee1"/><path d="M231 365c0-20-11-35-26-35-14 0-26 15-26 35 0 19 12 35 26 35 15 0 26-16 26-35zm0 0" fill="#aa6344"/><path d="M172 383c14-13 16-33 6-43s-29-7-43 7-17 33-6 43c10 10 29 7 43-7zm0 0" fill="#c97f4c"/><path d="M342 75h-16V19c0-11-9-19-19-19h-16c-10 0-18 8-18 19v56h-7V63c0-10-8-19-19-19h-82a8 8 0 0 0 0 15h82c2 0 4 2 4 4v12H110V63c0-2 1-4 3-4h20a7 7 0 1 0 0-15h-20c-10 0-18 9-18 19v12H19C8 75 0 84 0 94v34c0 9 8 17 17 18l6 49a18 18 0 0 0-8 17l22 203c1 8 6 13 12 16l8 64c1 10 9 17 18 17h38a7 7 0 1 0 0-15H75c-2 0-3-1-3-3l-7-62h171a7 7 0 1 0 0-15H56c-2 0-3-1-4-3L30 210l1-2s1-2 3-2h293l3 2v2l-22 204c0 2-1 3-3 3h-36a7 7 0 1 0 0 15h27l-7 62c0 2-2 3-4 3H146a8 8 0 0 0 0 15h139c10 0 18-7 19-17l7-64c7-3 11-8 12-16l22-203a19 19 0 0 0-7-17l6-49c9-1 17-9 17-18V94c0-10-9-19-19-19zm-54-56c0-2 1-4 3-4h16c2 0 4 2 4 4v56h-23V19zM37 191l-5-45h296l-5 45zm309-63c0 2-2 3-4 3H19c-2 0-4-1-4-3V94c0-2 2-4 4-4h323c2 0 4 2 4 4zm0 0"/><path d="M46 104h-1c-4 0-7 3-7 7s3 8 8 8a7 7 0 1 0 0-15zm0 0M67 104c-5 0-8 3-8 7s4 8 8 8a7 7 0 1 0 0-15zm0 0M294 104c-4 0-7 3-7 7s3 8 7 8a7 7 0 1 0 0-15zm0 0M315 104c-4 0-7 3-7 7s3 8 7 8a7 7 0 1 0 0-15zm0 0M258 103H102a7 7 0 1 0 0 15h156a7 7 0 1 0 0-15zm0 0M181 237a75 75 0 0 0-61 118l-5 13c-1 11 2 20 8 27 6 6 13 8 21 8 11 0 23-5 33-14v-1c6 12 17 20 28 20 19 0 34-20 34-43l-1-6a75 75 0 0 0-57-122zm-47 147c-3-3-5-8-4-13 1-7 5-14 10-19 6-6 13-9 19-10a23 23 0 0 1 7 0l-24 24a8 8 0 0 0 10 11l25-25c1 8-3 18-11 26-10 11-25 13-32 6zm71 9c-8 0-15-9-17-20 4-8 5-17 3-25 2-4 4-6 7-8v34a7 7 0 1 0 15 0v-34c6 4 11 14 11 25 0 15-9 28-19 28zm17-65c6-16 2-35-10-48a8 8 0 0 0-11 11c8 8 11 21 6 31h-2c-8 0-16 4-23 12-6-6-15-9-25-7h-1c-7-11-6-26 4-36a7 7 0 1 0-11-11 44 44 0 0 0-7 52l-12 9-1 1c-5-9-8-20-8-31a60 60 0 1 1 112 29c-3-5-7-9-11-12zm0 0"/><path d="M190 304h-19a7 7 0 1 0 0 15h19a7 7 0 1 0 0-15zm0 0M177 298h7a7 7 0 1 0 0-15h-7a7 7 0 1 0 0 15zm0 0"/></svg>